<?xml version="1.0" encoding="UTF-8"?>
<svg id="uuid-5ced26dd-7a43-456e-b97c-351e3bf09ee2" data-name="Layer 1" xmlns="http://www.w3.org/2000/svg" viewBox="0 0 309.75 127.5">
  <path d="m6.81,104.44l.22-1.12c2.69-5.15,58.02-58.46,89.6-84.45.9-.9,2.69-2.24-1.34-1.57-12.77,1.34-28.22,2.91-41.22,5.15-29.57,5.15-45.7,10.75-50.85,13.22-.9.45,0,.67-.67,1.12-1.79,1.12-3.81-.67-1.57-2.02,8.96-5.38,35.84-11.87,52.64-14.56,17.47-2.69,35.39-4.48,45.47-5.38,2.02-.22,2.69-.22,4.48-1.79l6.5-4.93c.22,0,.67-.22.9-.22.67,0,.9.45.9,1.57l-4.03,3.14c-1.79,1.12-1.57,1.57,0,1.34l4.03-.22c7.84-.67,22.62-1.34,30.69-1.34,15.01,0,28.67,1.34,31.58,4.7,1.57,2.46-.22,4.7-1.34,4.7-.45,0-.67-.45-.45-1.12,2.02-3.14-2.91-5.82-24.86-6.5-10.3,0-26.66,1.12-37.18,1.79l-4.03.22c-2.02.22-4.93,1.57-5.82,2.24l-8.06,6.94C48.7,65.02,19.58,91.68,9.05,103.55v.67c.45.22.22.9-.45,1.57,0,.22-.22.22-.67.22-.9-.22-1.12-1.34-1.12-1.57Z" fill="#fc8a68"/>
  <path d="m78.49,63.9c-4.26,3.14-6.72,9.86-2.02,9.86,2.02,0,8.06-2.24,11.2-5.6,1.12-1.57,1.12-1.34.67-3.81-.45-1.34-.45-2.69.22-4.26.67-2.69,2.46-5.15,5.38-5.15,4.03,0,1.57,6.94,0,9.18-1.12,1.57-.67,2.46,1.34,2.69,3.36,0,9.63,0,18.82-5.15,1.34-.67,2.24-1.12,2.46-1.12,2.02,0-2.91,2.91-3.58,3.58-7.84,4.26-16.35,5.38-21.28,4.48-1.57-.22-2.69.9-3.58,1.79-5.15,4.26-9.18,5.6-11.87,5.6-4.48,0-5.82-2.91-4.26-6.72,2.02-6.05,7.84-10.3,14.11-11.87,1.57-.22,3.14.45-.45,2.91-2.91,1.57-5.38,2.46-7.17,3.58Zm14.78-6.5c-.67,0-1.34.45-1.79,1.34-1.34,1.57-1.57,4.93-.45,5.15,1.12,0,4.03-6.5,2.24-6.5Z" fill="#fc8a68"/>
  <path d="m125.3,69.5c-3.58,2.91-8.74,5.82-12.99,5.82-2.24-.45-3.14-2.02-2.24-4.93.45-1.57,1.34-3.14,2.69-4.93,1.12-1.57.9-2.46-1.12-.9-.67.67-.9-.45-.9-.67.22-.67,2.91-2.02,4.26-2.91,2.24-1.57,3.14-1.79,5.38-4.26,7.17-7.39,28.45-26.66,37.86-27.78h.67c3.36,0,1.34,4.03-.45,5.82-11.42,9.86-23.97,17.92-36.96,25.09-1.79.9-2.02,1.34-3.36,2.91-4.48,4.93-6.5,8.06-6.05,9.63.67.22.9.45,1.34.45,2.69,0,6.72-2.46,8.96-4.03.9-.67,3.14-1.79,2.02-3.81-1.12-1.79-.45-4.7,1.12-6.5,1.12-.9,2.02-1.34,2.91-1.34,3.36,0,2.91,4.03,1.57,6.72-.45,1.12-1.57,2.02.45,2.24,5.82,1.12,14.78-2.24,20.83-5.82.9-.22,1.12-.45,1.34-.45,1.12,0,1.34,1.12-.45,2.24-8.29,5.15-17.47,7.17-23.74,6.27-1.79,0-2.02.22-3.14,1.12Zm2.91-9.86c-.9-1.12-1.57,1.34-1.79,2.91,0,.67.22,1.79.9,1.57.67-.67,1.34-3.58.9-4.48Zm.67-8.51c-1.57,1.57-2.24,2.46-2.02,2.46.67,0,1.79-.22,2.69-.9,3.81-2.46,8.74-5.38,11.65-7.39,6.94-4.26,10.98-7.62,15.01-11.42,1.79-1.57,2.24-2.46,1.57-2.69-2.24-.67-14.34,7.84-17.47,10.3-4.03,2.91-7.39,6.27-11.42,9.63Z" fill="#fc8a68"/>
  <path d="m142.78,66.81c.22,0-.45.22-1.57.45-.9.22-1.34-.67.45-1.34,3.14-2.02,4.26-2.24,7.62-4.26.9-.67,2.24-1.12,4.03-2.02.9-.67,2.02-.22,2.46.67.67.9-1.12,1.79-3.14,2.69-1.79.67-2.46,1.57-3.36,2.46-8.06,9.41,4.48,6.72,11.42,4.48,4.7-1.57,10.98-4.7,17.7-8.06,2.69-1.57,2.46.9-.22,2.02-9.41,5.38-19.71,10.75-28.67,10.75-4.7.22-6.72-3.14-4.48-7.39.9-.9,1.34-2.02-2.24-.45Zm25.98-17.7c.67,0,2.46.22,2.91,1.34,0,.9-1.57,1.12-2.69,1.34-2.46.67-5.82,2.46-6.72,3.14,0,.45-.22.67-.67.67-1.57,0-.9-1.34,0-2.24,1.34-1.57,4.48-3.58,7.17-4.26Z" fill="#fc8a68"/>
  <path d="m200.34,41.5c4.7-4.26,17.7-16.35,23.74-16.35.45,0,.67,0,.9.22,1.34.67.45,3.14-1.79,5.6-7.17,8.96-29.79,24.19-39.87,30.24-1.34,1.12-2.24,2.02-4.48,4.7-1.34,2.46-.67,3.36.22,4.03,8.74,1.12,23.74-3.14,33.15-8.51.9-.67,2.46-1.34,3.36-1.34,2.24,0-5.15,4.7-5.6,4.7-10.75,5.15-19.71,7.39-29.57,8.06-2.46.22-3.14,0-3.36,2.46-.9,16.35-20.38,37.18-35.84,43.01-2.02.9-3.81,1.34-5.38,1.34-4.48,0-6.27-3.36-1.12-11.2,4.26-5.82,9.63-11.87,15.68-17.92,5.82-6.27,11.87-12.32,18.37-18.37,1.34-1.57,2.46-2.46,4.03-4.03,0-.67,0-1.57.67-2.69.45-1.12,2.02-4.03,3.58-4.03.45,0,.9.22,1.34.67l17.02-16.58,4.93-4.03Zm-26.66,31.14c-.9,0-2.91.9-7.17,5.15l-11.42,11.65c-9.18,8.96-17.92,18.37-20.16,23.52-1.12,2.69-.45,4.03,1.57,4.03,6.5,0,19.94-10.3,24.64-15.68,6.27-6.72,10.53-13.22,12.32-19.26.9-3.36,1.79-5.38,1.34-7.84,0-1.12-.45-1.57-1.12-1.57Zm16.35-18.37c2.02,0,23.74-17.25,27.1-19.94,5.6-4.7,6.94-6.72,5.38-6.72-.67,0-2.02.67-4.48,2.24-5.38,3.58-17.47,14.11-24.19,20.16-2.91,2.46-4.48,4.26-3.81,4.26Z" fill="#fc8a68"/>
  <path d="m212.44,63.9c-4.26,3.14-6.72,9.86-2.02,9.86,2.02,0,8.06-2.24,11.2-5.6,1.12-1.57,1.12-1.34.67-3.81-.45-1.34-.45-2.69.22-4.26.67-2.69,2.46-5.15,5.38-5.15,4.03,0,1.57,6.94,0,9.18-1.12,1.57-.67,2.46,1.34,2.69,3.36,0,9.63,0,18.82-5.15,1.34-.67,2.24-1.12,2.46-1.12,2.02,0-2.91,2.91-3.58,3.58-7.84,4.26-16.35,5.38-21.28,4.48-1.57-.22-2.69.9-3.58,1.79-5.15,4.26-9.18,5.6-11.87,5.6-4.48,0-5.82-2.91-4.26-6.72,2.02-6.05,7.84-10.3,14.11-11.87,1.57-.22,3.14.45-.45,2.91-2.91,1.57-5.38,2.46-7.17,3.58Zm14.78-6.5c-.67,0-1.34.45-1.79,1.34-1.34,1.57-1.57,4.93-.45,5.15,1.12,0,4.03-6.5,2.24-6.5Z" fill="#fc8a68"/>
  <path d="m246.93,66.81c2.69-3.36,2.91-4.03-.22-2.46l-3.81,2.02c-2.02.9-3.81.67-.9-1.12,3.58-2.02,4.26-2.69,8.74-5.15,1.12-1.57,1.79-1.34,2.46-1.34,1.12.22,1.12,1.79-.22,3.36-.45.22-1.57,2.02-1.57,2.24-1.57,2.02-1.34,2.24.9.9,4.48-3.14,8.29-4.48,11.2-4.03,5.6,1.12,3.36,8.51,13.66,9.18,5.6.22,13.66-.9,17.7-1.79,1.57-.67,3.36-.9,3.58-.22-.22.45-6.27,2.24-7.17,2.24-4.7.9-10.75,1.57-14.11,1.79-11.65.67-10.75-8.74-15.23-8.74-5.38,0-12.54,6.27-14.56,8.06l-2.24,1.79c-2.24,2.02-4.03.45-1.79-2.24.9-.9,2.69-3.36,3.58-4.48Z" fill="#fc8a68"/>
  <path d="m308.3,68.38c3.81,0-.9,4.26-2.69,4.26-.9,0-1.34-.22-1.12-.9.22-2.02,2.24-3.36,3.81-3.36Z" fill="#fc8a68"/>
</svg>